<svg width="131" height="43" viewBox="0 0 131 43" fill="none" xmlns="http://www.w3.org/2000/svg">
<g clip-path="url(#clip0_30_8325)">
<path d="M0.125 42.7444H42.645V0.224365H0.125V42.7444ZM20.145 10.4644C19.475 8.32436 18.745 7.63437 14.975 7.63437H12.065C11.185 7.63437 10.995 7.82437 10.995 8.61437V14.6844H12.415C15.415 14.6844 16.055 14.1344 16.415 12.1244H17.145V18.9044H16.415C16.015 16.6444 14.885 16.0744 12.415 16.0744H10.985V22.4044C10.985 24.4144 11.525 24.6444 13.815 24.7344V25.4644H4.735V24.7144C6.625 24.6344 7.165 24.4044 7.165 22.3844V9.29436C7.165 7.28436 6.625 7.05437 4.795 6.97437V6.24437H20.845L20.945 10.4744H20.145V10.4644ZM38.385 10.4644C37.775 8.39437 36.875 7.63437 34.845 7.63437H32.475V22.3844C32.475 24.3944 32.995 24.6244 35.175 24.7144V25.4644H25.915V24.7344C28.075 24.6544 28.615 24.4244 28.615 22.4044V7.65437H26.255C24.245 7.65437 23.325 8.40437 22.715 10.4844H21.755L22.155 6.25437H38.995L39.355 10.4844H38.385V10.4644Z" fill="#02033B"/>
<path d="M52.0041 17.9144C52.0041 18.9144 52.2841 18.9944 53.3941 19.0344V19.3944H48.9741V19.0344C49.8941 18.9944 50.1741 18.8744 50.1741 17.9144V11.5444C50.1741 10.5444 49.8941 10.4644 49.0241 10.4244V10.0644H56.8341L56.8741 12.1344H56.4741C56.1541 11.0944 55.7941 10.7844 53.9641 10.7844H52.5341C52.0941 10.7844 52.0141 10.8644 52.0141 11.2644V14.2144H53.6141C55.0841 14.2144 55.4041 13.9344 55.5641 12.9744H55.9241V16.2844H55.5641C55.3641 15.1644 54.8041 14.8944 53.6141 14.8944H52.0141V17.9244L52.0041 17.9144ZM61.2041 17.9144C61.2041 18.9144 61.4841 18.9944 62.5941 19.0344V19.3944H57.9841V19.0344C59.1041 18.9944 59.3741 18.8744 59.3741 17.9144V11.5444C59.3741 10.5444 59.1341 10.4644 57.9841 10.4244V10.0644H62.6041V10.4244C61.4841 10.4644 61.2141 10.5844 61.2141 11.5444V17.9144H61.2041ZM72.2341 11.7844C72.2341 10.8644 71.9941 10.5044 70.9641 10.3944V10.0344H74.2741V10.3944C73.2341 10.5144 73.0041 10.8744 73.0041 11.7844V19.5944H72.5241L66.1541 12.2244V17.6444C66.1541 18.5644 66.3941 18.9244 67.4241 19.0344V19.3944H64.1141V19.0344C65.1541 18.9144 65.3841 18.5544 65.3841 17.6444V11.3544C65.1441 10.8444 64.6641 10.4944 64.1141 10.3944V10.0344H66.6641L72.2441 16.4844V11.7844H72.2341ZM77.2141 16.0444L78.6041 12.3444L79.9941 16.0444H77.2141ZM83.9041 19.3944V19.0344C83.1841 19.0344 83.0241 18.7544 82.6641 17.8844L79.3541 9.8344H78.9141L75.4941 18.1644C75.3241 18.6644 74.8641 19.0144 74.3441 19.0444V19.4044H77.3341V19.0444C76.6941 19.0444 76.3741 18.8844 76.3741 18.4444C76.4941 17.8544 76.6641 17.2844 76.8941 16.7344H80.2841C80.5341 17.2844 80.7141 17.8544 80.8441 18.4444C80.8441 18.8844 80.4841 19.0444 79.8441 19.0444V19.4044H83.9041V19.3944ZM92.9841 11.7644C92.9841 10.8444 92.7441 10.4844 91.7141 10.3744V10.0144H95.0241V10.3744C93.9841 10.4944 93.7541 10.8544 93.7541 11.7644V19.5744H93.2741L86.9141 12.2044V17.6244C86.9141 18.5444 87.1541 18.9044 88.1841 19.0144V19.3744H84.8741V19.0144C85.9141 18.8944 86.1441 18.5344 86.1441 17.6244V11.3344C85.9041 10.8244 85.4241 10.4744 84.8741 10.3744V10.0144H87.4241L93.0041 16.4644V11.7644H92.9841ZM104.804 17.1844C104.014 18.7444 102.374 19.7044 100.624 19.6144C97.5941 19.6144 95.7641 17.6244 95.7641 14.6344C95.7941 11.9444 97.9941 9.7844 100.684 9.8144H100.704C101.584 9.9144 102.454 10.1044 103.294 10.3744C103.574 10.3744 103.654 10.2144 103.894 9.8144H104.374L104.574 12.9244H104.174C103.804 11.4844 102.514 10.4544 101.024 10.4144C98.8341 10.4144 97.8741 12.8044 97.8741 14.5944C97.8741 17.1044 98.9441 18.8144 101.304 18.8144C102.644 18.7644 103.864 18.0244 104.534 16.8644L104.814 17.1844H104.804ZM109.304 17.9044C109.304 18.9044 109.584 18.9844 110.694 19.0244V19.3844H106.084V19.0244C107.204 18.9844 107.474 18.8644 107.474 17.9044V11.5344C107.474 10.5344 107.194 10.4544 106.084 10.4144V10.0544H110.704V10.4144C109.584 10.4544 109.314 10.5744 109.314 11.5344V17.9044H109.304ZM114.514 16.0344L115.904 12.3344L117.294 16.0344H114.514ZM121.204 19.3844V19.0244C120.484 19.0244 120.324 18.7444 119.964 17.8744L116.654 9.8244H116.214L112.794 18.1544C112.624 18.6544 112.164 19.0044 111.644 19.0344V19.3944H114.634V19.0344C113.994 19.0344 113.674 18.8744 113.674 18.4344C113.794 17.8444 113.964 17.2744 114.194 16.7244H117.584C117.824 17.2744 118.014 17.8444 118.144 18.4344C118.144 18.8744 117.784 19.0344 117.144 19.0344V19.3944H121.204V19.3844ZM122.044 19.3844V19.0244C122.924 18.9844 123.194 18.8644 123.194 17.9044V11.5344C123.194 10.5344 122.914 10.4544 122.044 10.4144V10.0544H126.344V10.4144C125.304 10.4544 125.074 10.5744 125.074 11.5344V18.1044C125.074 18.6644 125.234 18.8644 126.274 18.8644C127.944 18.8644 128.944 18.5444 129.734 16.9144H130.094L129.454 19.4244H122.044V19.3844ZM50.9841 34.1244C52.0541 34.0844 52.2941 33.9644 52.2941 33.0044V25.8344H51.1441C50.0741 25.8344 49.6341 26.2744 49.3141 27.5444H48.9141L49.1541 25.1544H57.3641L57.6041 27.5444H57.2041C56.8841 26.2644 56.4841 25.8344 55.3741 25.8344H54.2241V33.0044C54.2241 34.0044 54.5041 34.0844 55.5441 34.1244V34.4844H51.0441V34.1244H50.9841ZM61.7841 33.0044C61.7841 34.0044 62.0641 34.0844 63.1741 34.1244V34.4844H58.5541V34.1244C59.6741 34.0844 59.9441 33.9644 59.9441 33.0044V26.6344C59.9441 25.6344 59.6641 25.5544 58.5541 25.5144V25.1544H63.1841V25.5144C62.0641 25.5544 61.7941 25.6744 61.7941 26.6344V33.0044H61.7841ZM72.9741 25.1144H76.2041V25.4744C75.3241 25.5144 75.0541 25.6344 75.0541 26.5944V32.9644C75.0541 33.9644 75.3341 34.0444 76.2041 34.0844V34.4444H71.9741V34.0844C72.8941 34.0444 73.1741 33.9244 73.1741 32.9644V26.3944H73.1341L70.0241 34.5644H69.5841L66.5141 26.3944H66.4741V32.6844C66.4741 33.6044 66.7141 33.9644 67.7441 34.0744V34.4344H64.4341V34.0744C65.4741 33.9544 65.7041 33.5944 65.7041 32.6844V26.3144C65.7041 25.6744 65.4241 25.4344 64.4341 25.4344V25.0744H67.8241L70.2941 31.5644L72.9641 25.1144H72.9741ZM77.5141 34.4744V34.1144C78.3941 34.0744 78.6641 33.9544 78.6641 32.9944V26.6244C78.6641 25.6244 78.3841 25.5444 77.5141 25.5044V25.1444H85.3241L85.3641 27.2144H84.9641C84.6441 26.1744 84.2841 25.8644 82.4541 25.8644H81.0241C80.5841 25.8644 80.5041 25.9444 80.5041 26.3444V29.2944H82.0941C83.5641 29.2944 83.8841 29.0144 84.0441 28.0544H84.4041V31.3644H84.0441C83.8441 30.2444 83.2841 30.0144 82.0941 30.0144H80.5041V33.2444C80.5041 33.8044 80.6641 34.0044 82.3341 34.0044C84.0041 34.0044 85.0041 33.6844 85.7941 32.0544H86.1541L85.5141 34.5644H77.5041V34.4844H77.5141V34.4744ZM87.3941 31.5044H87.7541C88.1341 32.8644 89.2941 33.8744 90.7041 34.0544C91.5141 34.1244 92.2241 33.5344 92.2941 32.7244V32.5044C92.2941 30.3544 87.4341 29.9544 87.4341 27.2844C87.5441 25.9044 88.7141 24.8544 90.1041 24.8944C90.9541 24.9744 91.7941 25.1344 92.6141 25.3744C92.8741 25.3744 93.0841 25.1544 93.0941 24.8944H93.4541V27.8844H93.0941C92.8541 26.5944 91.7741 25.6344 90.4641 25.5344C89.7541 25.4544 89.1241 25.9544 89.0341 26.6644V26.8544C89.0341 28.7644 93.8941 28.8044 93.8941 32.1144C93.8541 33.5844 92.6241 34.7544 91.1541 34.7144H90.9841C89.3541 34.7144 88.9141 34.1544 88.2741 34.1544C88.0341 34.1544 87.8741 34.3144 87.7941 34.6344H87.3141L87.3941 31.5244V31.5044Z" fill="#02033B"/>
</g>
<defs>
<clipPath id="clip0_30_8325">
<rect width="130" height="42.52" fill="white" transform="translate(0.125 0.224365)"/>
</clipPath>
</defs>
</svg>
