<svg width="190" height="233" viewBox="0 0 190 233" fill="none" xmlns="http://www.w3.org/2000/svg">
<path d="M136.249 146.805C133.875 145.624 131.141 145.389 128.6 146.148C126.059 146.908 123.902 148.603 122.564 150.893C121.589 152.586 120.556 154.221 119.466 155.799C117.626 158.637 115.644 161.381 113.527 164.019C109.519 168.936 103.723 172.062 97.4127 172.707C91.1019 173.353 84.7931 171.466 79.8731 167.461C78.6196 166.425 77.4669 165.272 76.4303 164.019C74.3646 161.437 72.385 158.725 70.4914 155.928C60.8246 141.027 54.1316 124.397 50.7813 106.954C48.8519 97.3881 47.6293 87.6933 47.1233 77.9481C46.795 71.6913 48.7006 65.5215 52.5 60.5396C56.2995 55.5578 61.7455 52.0881 67.8663 50.7497H68.1675C77.0378 48.8839 86.0239 47.6187 95.0646 46.9626C104.09 47.6064 113.061 48.8573 121.919 50.7067H122.177C128.297 52.055 133.739 55.5348 137.531 60.5248C141.323 65.5148 143.217 71.6901 142.877 77.9481C142.877 79.8416 142.877 81.7782 142.489 83.8009C142.36 85.1763 142.505 86.5637 142.916 87.8825C143.328 89.2013 143.998 90.425 144.887 91.4823C145.776 92.5397 146.867 93.4096 148.095 94.0414C149.324 94.6731 150.666 95.0541 152.043 95.1622L177.52 97.1848C178.889 97.3026 180.267 97.1486 181.576 96.7314C182.885 96.3143 184.098 95.6424 185.146 94.7544C186.194 93.8664 187.056 92.7798 187.682 91.5573C188.309 90.3347 188.687 89.0004 188.795 87.631C190.018 72.6312 189.902 57.5524 188.451 42.573C188.116 39.0657 187.079 35.6616 185.4 32.5637C183.722 29.4658 181.437 26.7375 178.682 24.5413C154.755 5.69179 111.117 1.47433 98.5074 0.484521C96.1723 0.312451 93.8277 0.312451 91.4927 0.484521C78.8833 1.47433 35.2455 5.69179 11.3179 24.5413C8.56394 26.7419 6.27736 29.4706 4.59241 32.5671C2.90745 35.6636 1.85806 39.0654 1.50585 42.573C-1.59269 74.3331 -4.51909 178.435 83.2729 229.647C86.898 231.761 91.0191 232.874 95.2152 232.874C99.4114 232.874 103.532 231.761 107.157 229.647C130.627 216 150.098 196.425 163.62 172.884C164.317 171.698 164.773 170.385 164.963 169.023C165.152 167.66 165.07 166.273 164.722 164.941C164.374 163.61 163.767 162.361 162.936 161.264C162.104 160.168 161.064 159.247 159.876 158.553L159.23 158.209L136.249 146.805Z" fill="#FDB235"/>
</svg>
