<svg width="131" height="47" viewBox="0 0 131 47" fill="none" xmlns="http://www.w3.org/2000/svg">
<g clip-path="url(#clip0_30_8331)">
<path fill-rule="evenodd" clip-rule="evenodd" d="M128.514 13.3544C128.594 10.8544 126.624 8.75442 124.124 8.67442H123.914C122.114 8.67442 120.224 9.67442 120.514 12.1744C120.694 13.7644 123.174 14.3344 124.514 14.7644C128.514 16.0144 130.094 17.5344 130.094 20.4944C130.094 23.4544 127.634 25.4944 123.244 25.4944C121.094 25.4944 118.704 25.0644 117.244 23.7444L116.734 19.4544H117.144C117.784 23.2744 119.434 24.7744 123.394 24.8744C125.924 24.9344 126.674 23.4944 126.664 21.7144C126.654 19.9344 124.734 19.1644 122.464 18.4144C119.214 17.4144 117.214 16.1344 117.214 13.0244C117.214 9.91442 119.964 7.90442 124.034 7.90442C125.714 7.95442 127.364 8.41442 128.834 9.24442V13.3144L128.514 13.3544Z" fill="#02033B"/>
<path fill-rule="evenodd" clip-rule="evenodd" d="M114.306 9.56436C115.016 9.08436 115.686 8.55436 116.306 7.95436C116.996 7.37436 117.436 6.55436 117.526 5.65436C117.526 5.48436 117.476 5.30436 117.376 5.16436C117.266 5.03436 117.096 4.96436 116.926 4.97436C116.716 5.01436 116.496 5.03436 116.286 5.04436C115.696 5.06436 115.116 4.82436 114.706 4.39436C114.296 3.94436 114.086 3.34436 114.126 2.73436C114.086 2.06436 114.326 1.41436 114.776 0.924361C115.256 0.444361 115.916 0.184361 116.596 0.224361C117.406 0.204361 118.186 0.544361 118.726 1.14436C119.266 1.75436 119.566 2.53436 119.596 3.34436C119.566 4.97436 118.896 6.52436 117.726 7.65436C116.796 8.58436 115.736 9.37436 114.576 9.99436L114.306 9.56436Z" fill="#02033B"/>
<path fill-rule="evenodd" clip-rule="evenodd" d="M77.2959 33.4344V38.9944C77.2959 40.6744 78.0459 41.1944 78.7759 41.1944C79.2459 41.1644 79.6959 41.0644 80.1259 40.8744L80.2359 41.2244C79.4259 41.7344 78.4959 42.0144 77.5359 42.0444C76.7459 42.0444 74.7959 41.7644 74.7959 39.8544V33.4344H73.2559V32.8144H75.0659L76.7759 30.1544H77.2959V32.8144H80.0359V33.4444H77.2959V33.4344Z" fill="#02033B"/>
<path fill-rule="evenodd" clip-rule="evenodd" d="M71.7858 35.4544C71.8358 34.1044 70.7858 32.9744 69.4358 32.9244H69.4158H69.2958C68.3958 32.8144 67.5658 33.4544 67.4558 34.3644C67.4558 34.3644 67.4558 34.3744 67.4558 34.3844C67.4358 34.5244 67.4358 34.6744 67.4558 34.8144C67.5558 35.6744 68.9058 35.9844 69.6358 36.2144C71.7958 36.8944 72.6358 37.7144 72.6358 39.3144C72.6358 40.9144 71.3058 42.0344 68.9358 42.0344C67.7758 42.0944 66.6358 41.7344 65.7058 41.0344L65.4258 38.7244H65.6458C65.9958 40.7844 66.8858 41.5944 69.0258 41.6544C69.8458 41.8044 70.6258 41.2644 70.7858 40.4444C70.8058 40.2744 70.8058 40.1144 70.7858 39.9444C70.7858 38.9444 69.7858 38.5744 68.5158 38.1644C66.7558 37.6044 65.6758 36.9244 65.6758 35.2544C65.6758 33.5844 67.1658 32.4844 69.3558 32.4844C70.2658 32.5144 71.1558 32.7644 71.9558 33.2044V35.4044L71.7858 35.4544Z" fill="#02033B"/>
<path fill-rule="evenodd" clip-rule="evenodd" d="M110.575 8.22437C109.235 8.22437 107.575 8.96437 105.855 11.1344V8.22437L100.055 9.07437V9.55437C100.055 9.55437 101.335 9.40437 101.855 9.36437V23.1644C101.855 23.7344 101.765 24.4644 100.795 24.4644H99.8555V25.1044H108.125V24.4744H107.125C106.495 24.5544 105.925 24.1044 105.845 23.4744C105.825 23.3644 105.825 23.2644 105.845 23.1544V13.5144C106.065 11.3944 107.395 10.1744 108.005 10.1644C109.175 10.1644 109.135 10.9944 110.175 11.4844C111.045 11.9144 112.095 11.5644 112.525 10.6944C112.625 10.4844 112.685 10.2544 112.695 10.0144C112.695 9.01437 112.015 8.25436 110.565 8.25436" fill="#02033B"/>
<path fill-rule="evenodd" clip-rule="evenodd" d="M32.825 8.84437C37.385 8.84437 37.195 14.8444 37.195 14.9044C37.235 15.2844 36.955 15.6344 36.575 15.6744C36.575 15.6744 36.565 15.6744 36.555 15.6744C36.495 15.6744 36.445 15.6744 36.385 15.6744H29.585C29.175 15.6944 28.815 15.3744 28.785 14.9644V14.8144C28.865 12.8144 29.395 8.81437 32.785 8.81437M29.515 16.4444H40.685C40.795 15.4444 40.745 14.4344 40.535 13.4444C40.335 12.3944 39.885 11.3944 39.225 10.5544C38.125 9.22437 36.205 8.22437 32.975 8.22437C27.125 8.22437 24.125 11.9544 24.125 17.0344C24.125 22.1144 26.815 25.6444 33.055 25.6444C37.195 25.6444 39.365 23.7044 40.475 20.9644L40.025 20.7444C38.565 23.6444 36.765 24.7444 33.895 24.7444C29.675 24.7444 28.795 20.7444 28.755 17.3844C28.755 17.3544 28.755 17.3144 28.755 17.2844C28.725 16.8644 29.035 16.4844 29.465 16.4544H29.575" fill="#02033B"/>
<path fill-rule="evenodd" clip-rule="evenodd" d="M59.8745 32.8144C62.4045 32.8144 62.3145 36.0544 62.3145 36.0644C62.3245 36.2844 62.1645 36.4644 61.9545 36.4944H58.1245C57.8945 36.5044 57.6945 36.3244 57.6745 36.0944V36.0244C57.6745 34.9144 58.0045 32.8344 59.9045 32.8244M58.0945 37.0444H64.2645C64.3045 36.4944 64.2645 35.9444 64.1245 35.4044C64.0145 34.8244 63.7745 34.2744 63.4045 33.8044C62.5245 32.8544 61.2445 32.3544 59.9545 32.4744C57.4445 32.2644 55.2445 34.1344 55.0345 36.6444C55.0345 36.6444 55.0345 36.6444 55.0345 36.6544C55.0145 36.8944 55.0145 37.1444 55.0345 37.3844C55.0345 40.3144 56.5145 42.1544 59.9745 42.1544C61.7945 42.3344 63.5045 41.2544 64.1245 39.5344L63.8045 39.4144C63.2745 40.8144 61.9045 41.7144 60.4045 41.6344C58.0745 41.6344 57.6545 39.4344 57.6345 37.5544C57.6145 37.3144 57.7945 37.1044 58.0345 37.0844" fill="#02033B"/>
<path fill-rule="evenodd" clip-rule="evenodd" d="M90.6851 8.83436C95.2351 8.83436 95.0551 14.8844 95.0551 14.9044C95.0851 15.2944 94.7951 15.6344 94.4051 15.6744C94.3451 15.6744 94.2951 15.6744 94.2351 15.6744H87.4351C87.0151 15.6944 86.6651 15.3744 86.6351 14.9544V14.8544C86.7251 12.8544 87.2551 8.85437 90.6351 8.85437M87.3551 16.4844H98.5351C98.6451 15.4844 98.5851 14.4744 98.3751 13.4844C98.2051 12.4444 97.7751 11.4544 97.1251 10.6144C95.9651 9.22437 94.0651 8.22437 90.8351 8.22437C84.9951 8.22437 81.9551 12.0044 81.9551 17.0844C81.9551 22.1644 84.6351 25.6944 90.8751 25.6944C95.0251 25.6944 97.1951 23.7544 98.3051 21.0144L97.8651 20.7944C96.3951 23.6944 94.5951 24.7944 91.7251 24.7944C87.5051 24.7944 86.6251 20.7944 86.5851 17.4344C86.5851 17.4044 86.5851 17.3644 86.5851 17.3344C86.5451 16.9144 86.8551 16.5444 87.2751 16.5044H87.2951H87.4051" fill="#02033B"/>
<path fill-rule="evenodd" clip-rule="evenodd" d="M9.545 12.3444H7.845C7.355 12.4044 6.905 12.0444 6.845 11.5544C6.845 11.5544 6.845 11.5544 6.845 11.5444V2.43442C7.545 2.32442 8.265 2.28442 8.975 2.30442C11.635 2.30442 14.685 3.15442 14.685 7.72442C14.685 11.1244 12.885 12.3444 9.525 12.3444M13.685 12.9244C16.825 12.4344 19.055 10.6744 19.035 7.40442C19.035 4.30442 17.315 1.65442 11.035 1.65442H0.125V2.22442H1.315C1.935 2.19442 2.465 2.66442 2.495 3.28442C2.495 3.36442 2.495 3.43442 2.495 3.51442V23.2244C2.595 23.8844 2.145 24.4944 1.495 24.6044H0.125V25.1444H9.345V24.6044H8.235C7.565 24.6844 6.955 24.2144 6.865 23.5444C6.845 23.4344 6.845 23.3144 6.865 23.2044V14.2044C6.865 14.2044 6.865 14.1744 6.865 14.1544C6.865 13.5744 7.095 13.1544 7.865 13.1544H9.125C11.125 13.1544 14.585 14.4544 15.605 19.9644C16.975 27.4144 23.405 29.0244 29.725 28.7544V28.4144C17.035 27.5244 23.555 13.8144 13.725 12.9144" fill="#02033B"/>
<path fill-rule="evenodd" clip-rule="evenodd" d="M42.1855 31.6444C42.8355 31.7244 43.4355 31.2644 43.5155 30.6144C43.5155 30.6144 43.5155 30.6044 43.5155 30.5944V30.4844C43.5455 29.8144 43.0255 29.2544 42.3555 29.2244C42.3455 29.2244 42.3355 29.2244 42.3255 29.2244H42.1855C41.5155 29.1744 40.9155 29.6744 40.8555 30.3444V30.4444C40.8555 31.1044 41.3855 31.6544 42.0455 31.6544C42.0755 31.6544 42.0955 31.6544 42.1255 31.6544H42.2355" fill="#02033B"/>
<path fill-rule="evenodd" clip-rule="evenodd" d="M43.8556 41.4344C43.5956 41.4244 43.3856 41.2044 43.3956 40.9344C43.3956 40.9344 43.3956 40.9344 43.3956 40.9244V32.8644L39.8656 33.4644L40.2156 33.8544L40.8256 33.7944V40.9044C40.8556 41.1644 40.6656 41.4044 40.4056 41.4344H39.7656V41.8644H44.6856V41.4344H43.8656H43.8556Z" fill="#02033B"/>
<path fill-rule="evenodd" clip-rule="evenodd" d="M53.8152 21.0944C53.8152 23.3744 51.4052 24.2344 50.2152 24.0944C48.1252 23.8744 47.2952 22.2244 47.2952 20.3244C47.1352 18.8544 48.0852 17.4944 49.5252 17.1544C50.9552 16.6044 52.9852 15.9744 53.8052 15.5144V21.0944H53.8152ZM60.1352 23.8944C59.7852 24.2244 59.3352 24.4344 58.8552 24.4744C58.3852 24.5144 57.9652 24.1844 57.9052 23.7144C57.8552 22.8344 57.8352 12.9844 57.8352 12.9844C57.8352 10.9844 56.5652 8.21436 50.9352 8.21436C46.6652 8.21436 43.7852 10.2144 43.6552 12.1444C43.5152 13.0244 44.1252 13.8544 45.0052 13.9944C45.1152 14.0044 45.2152 14.0044 45.3252 13.9944H45.5652C45.6452 13.9844 45.7152 13.9644 45.7952 13.9344L45.9552 13.8844C46.5852 13.5444 47.0152 12.9344 47.1352 12.2244C47.5152 9.90436 48.3552 8.69436 50.8252 8.77436C53.7152 8.85436 53.8252 10.4144 53.8252 13.0544V13.4144C53.8252 13.7244 53.6352 14.8544 51.6952 15.6444C49.9552 16.0344 48.2052 16.3444 46.4352 16.5544C44.3652 16.8744 42.8652 18.7144 42.9852 20.8044C42.9852 23.3444 44.9052 25.4544 48.3852 25.5544C51.1452 25.6344 52.7152 24.1344 53.8252 23.4044C54.1452 24.5344 55.0952 25.3844 56.2552 25.5644C57.7552 25.7744 59.2752 25.3144 60.4052 24.3144L60.1352 23.8944Z" fill="#02033B"/>
<path fill-rule="evenodd" clip-rule="evenodd" d="M74.5354 20.1444C74.5854 20.7544 74.4954 21.3644 74.2654 21.9244C73.5554 23.5744 72.0354 24.0444 70.2654 24.0444C66.9454 24.0444 66.0254 20.4844 66.0254 16.5944C66.0254 12.2744 67.0254 9.27438 70.5754 9.27438C72.1354 9.20438 73.5954 10.0744 74.2654 11.4944C74.5254 12.1844 74.6254 12.9144 74.5654 13.6444L74.5354 20.1444ZM79.9554 24.3944C78.8754 24.3944 78.5354 23.8644 78.5354 22.9644V0.36438L71.8754 1.08438V1.69438L74.5354 1.53438V10.5344C73.6554 9.15438 72.1654 8.27438 70.5354 8.18438C68.0454 8.01438 65.5854 8.86438 63.7354 10.5444C61.9554 12.2644 61.0054 14.6744 61.1254 17.1444C61.1254 22.0344 63.7054 25.4544 68.7054 25.4544C70.8554 25.4544 72.9354 24.6644 74.5354 23.2244V25.0244H80.5354V24.3944H79.9554Z" fill="#02033B"/>
<path fill-rule="evenodd" clip-rule="evenodd" d="M35.1256 39.1044C35.2656 40.2044 34.4956 41.2044 33.4056 41.3444C33.1656 41.3744 32.9256 41.3644 32.6956 41.3144C30.8156 41.3144 30.2956 39.3144 30.2956 37.0944C30.2956 34.6544 30.8556 32.9544 32.8656 32.9544C33.7656 32.8944 34.6156 33.4044 34.9956 34.2244C35.1256 34.6044 35.1756 35.0244 35.1256 35.4244V39.1044ZM38.1956 41.5144C37.5856 41.5144 37.3856 41.2144 37.3856 40.7044V27.9044L33.6156 28.3044V28.6544L35.1256 28.5644V33.6344C34.6256 32.8544 33.7856 32.3544 32.8656 32.3044C31.4556 32.2144 30.0656 32.6944 29.0156 33.6444C27.9956 34.6244 27.4556 35.9944 27.5256 37.4044C27.5256 40.1744 28.9956 42.1044 31.8256 42.1044C33.0456 42.1044 34.2256 41.6444 35.1256 40.8144V41.8144H38.5056V41.4544H38.1956V41.5144Z" fill="#02033B"/>
<path fill-rule="evenodd" clip-rule="evenodd" d="M49.7245 38.2244C48.6145 38.2244 47.9845 37.3244 47.9145 35.7244C47.8445 34.1244 48.7545 33.2744 49.6445 33.2744C50.4545 33.2744 51.3745 33.8244 51.3445 35.7244C51.3445 37.2644 50.8545 38.2144 49.7045 38.2244M49.8245 41.9044C51.6845 41.9044 52.7045 42.3244 52.6445 43.6944C52.6545 44.9644 51.6345 46.0044 50.3645 46.0244C50.2645 46.0244 50.1745 46.0244 50.0745 46.0244C48.3945 46.0244 47.3645 45.1344 47.3245 43.6244C47.3045 43.1344 47.5245 42.6544 47.9245 42.3644C48.4845 41.9844 49.1745 41.8344 49.8445 41.9244M52.8445 32.4644C53.4845 32.4644 53.4645 32.9244 54.0345 33.1944C54.5145 33.4144 55.0845 33.2244 55.3345 32.7644C55.3945 32.6444 55.4245 32.5144 55.4345 32.3744C55.4345 31.8144 55.0545 31.3744 54.2545 31.3744C53.2045 31.4744 52.2545 32.0544 51.6845 32.9444C51.0845 32.7244 50.4545 32.6144 49.8145 32.6044C46.8745 32.6044 45.6645 33.7744 45.6845 35.7044C45.6745 37.0944 46.6645 38.2844 48.0245 38.5344C46.9245 38.6844 46.0245 39.3244 46.0245 40.0844C46.0245 41.1744 47.4645 41.6744 48.2945 41.7344C47.4945 41.8144 45.7345 41.8544 45.6145 43.7344C45.4945 45.6144 47.4845 46.6444 49.7045 46.6644C53.3445 46.6644 54.7645 45.0644 54.7645 42.9644C54.7645 40.8644 53.0145 40.2144 51.0345 40.2144H49.2645C47.9545 40.2144 47.5545 39.7744 47.5545 39.4544C47.5545 38.9244 48.1445 38.7044 48.3945 38.6244C48.6445 38.5444 49.3945 38.6844 49.6145 38.6844C51.4045 38.6844 53.6145 37.9544 53.6145 35.6844C53.6045 35.2544 53.5045 34.8244 53.3245 34.4344L53.2345 34.2644C53.1645 34.1544 53.0845 34.0544 53.0045 33.9544L52.8945 33.8344L52.5445 33.4944C52.3745 33.3744 52.2045 33.2544 52.0245 33.1444C52.1845 32.8044 52.4845 32.5544 52.8445 32.4544" fill="#02033B"/>
</g>
<defs>
<clipPath id="clip0_30_8331">
<rect width="130" height="46.52" fill="white" transform="translate(0.125 0.224365)"/>
</clipPath>
</defs>
</svg>
