<svg width="44" height="45" viewBox="0 0 44 45" fill="none" xmlns="http://www.w3.org/2000/svg">
<g clip-path="url(#clip0_30_8575)" filter="url(#filter0_d_30_8575)">
<path d="M36.14 0.484375H7.86C6.83626 0.484375 5.85446 0.891052 5.13057 1.61494C4.40668 2.33883 4 3.32064 4 4.34437L4 32.6244C4 33.6481 4.40668 34.6299 5.13057 35.3538C5.85446 36.0777 6.83626 36.4844 7.86 36.4844H36.14C37.1637 36.4844 38.1455 36.0777 38.8694 35.3538C39.5933 34.6299 40 33.6481 40 32.6244V4.34437C40 3.32064 39.5933 2.33883 38.8694 1.61494C38.1455 0.891052 37.1637 0.484375 36.14 0.484375V0.484375ZM32.21 13.2444V13.9244C32.2245 15.8806 31.8534 17.8205 31.1178 19.6333C30.3823 21.446 29.2967 23.096 27.9232 24.489C26.5497 25.8821 24.9151 26.9908 23.1129 27.7518C21.3107 28.5128 19.3762 28.9113 17.42 28.9244C17.3504 28.9344 17.2796 28.9344 17.21 28.9244C14.3425 28.932 11.5336 28.1126 9.12 26.5644C9.54159 26.6126 9.96566 26.636 10.39 26.6344C12.7854 26.6496 15.1153 25.853 17 24.3744C15.8868 24.3706 14.8035 24.0144 13.9053 23.3569C13.007 22.6994 12.3401 21.7743 12 20.7144C12.788 20.8516 13.5963 20.8175 14.37 20.6144C13.1912 20.3671 12.133 19.7227 11.3722 18.789C10.6114 17.8553 10.1941 16.6888 10.19 15.4844V15.4144C10.9148 15.8246 11.7277 16.0544 12.56 16.0844C11.8393 15.6012 11.2487 14.9479 10.8406 14.1822C10.4324 13.4165 10.2193 12.5621 10.22 11.6944C10.2134 10.76 10.4586 9.84115 10.93 9.03438C12.261 10.6513 13.9158 11.9716 15.788 12.9102C17.6601 13.8489 19.7081 14.3851 21.8 14.4844C21.5339 13.3514 21.6496 12.1622 22.1291 11.1018C22.6086 10.0413 23.425 9.16902 24.4514 8.62045C25.4778 8.07189 26.6567 7.87782 27.8048 8.06841C28.9529 8.25901 30.0059 8.82359 30.8 9.67437C31.9693 9.46882 33.0953 9.06645 34.13 8.48438C33.7383 9.69981 32.9171 10.7308 31.82 11.3844C32.8548 11.2595 33.8656 10.9832 34.82 10.5644C34.1094 11.6002 33.2266 12.5066 32.21 13.2444Z" fill="white"/>
</g>
<defs>
<filter id="filter0_d_30_8575" x="0" y="0.484375" width="44" height="44" filterUnits="userSpaceOnUse" color-interpolation-filters="sRGB">
<feFlood flood-opacity="0" result="BackgroundImageFix"/>
<feColorMatrix in="SourceAlpha" type="matrix" values="0 0 0 0 0 0 0 0 0 0 0 0 0 0 0 0 0 0 127 0" result="hardAlpha"/>
<feOffset dy="4"/>
<feGaussianBlur stdDeviation="2"/>
<feComposite in2="hardAlpha" operator="out"/>
<feColorMatrix type="matrix" values="0 0 0 0 0 0 0 0 0 0 0 0 0 0 0 0 0 0 0.25 0"/>
<feBlend mode="normal" in2="BackgroundImageFix" result="effect1_dropShadow_30_8575"/>
<feBlend mode="normal" in="SourceGraphic" in2="effect1_dropShadow_30_8575" result="shape"/>
</filter>
<clipPath id="clip0_30_8575">
<rect width="36" height="36" fill="white" transform="translate(4 0.484375)"/>
</clipPath>
</defs>
</svg>
