<svg width="37" height="37" viewBox="0 0 37 37" fill="none" xmlns="http://www.w3.org/2000/svg">
<g clip-path="url(#clip0_30_8578)">
<path d="M32.7337 0.484375H4.45375C3.43001 0.484375 2.44821 0.891052 1.72432 1.61494C1.00043 2.33883 0.59375 3.32064 0.59375 4.34437L0.59375 32.6244C0.59375 33.6481 1.00043 34.6299 1.72432 35.3538C2.44821 36.0777 3.43001 36.4844 4.45375 36.4844H15.4537V24.2444H10.4137V18.4844H15.4838V14.0944C15.4838 9.09437 18.4837 6.34438 23.0037 6.34438C24.5013 6.36416 25.9954 6.49451 27.4737 6.73438V11.6344H24.9538C22.4838 11.6344 21.7038 13.1644 21.7038 14.7444V18.4844H27.2337L26.3538 24.2444H21.7038V36.4844H32.7038C33.2132 36.4883 33.7183 36.3914 34.1901 36.1992C34.6619 36.007 35.091 35.7233 35.4526 35.3645C35.8142 35.0056 36.1012 34.5788 36.2971 34.1085C36.4929 33.6382 36.5938 33.1338 36.5938 32.6244V4.34437C36.5938 3.32064 36.1871 2.33883 35.4632 1.61494C34.7393 0.891052 33.7575 0.484375 32.7337 0.484375V0.484375Z" fill="white"/>
</g>
<defs>
<clipPath id="clip0_30_8578">
<rect width="36" height="36" fill="white" transform="translate(0.59375 0.484375)"/>
</clipPath>
</defs>
</svg>
