<svg width="37" height="37" viewBox="0 0 37 37" fill="none" xmlns="http://www.w3.org/2000/svg">
<g clip-path="url(#clip0_30_8581)">
<path d="M32.3275 36.4844H4.0475C3.02376 36.4844 2.04196 36.0777 1.31807 35.3538C0.594177 34.6299 0.1875 33.6481 0.1875 32.6244L0.1875 4.34437C0.1875 3.32064 0.594177 2.33883 1.31807 1.61494C2.04196 0.891052 3.02376 0.484375 4.0475 0.484375H32.3275C33.3512 0.484375 34.333 0.891052 35.0569 1.61494C35.7808 2.33883 36.1875 3.32064 36.1875 4.34437V32.6244C36.1875 33.6481 35.7808 34.6299 35.0569 35.3538C34.333 36.0777 33.3512 36.4844 32.3275 36.4844ZM17.8275 9.62438C17.7475 9.62438 10.3475 9.62438 8.5075 10.1244C8.00108 10.2623 7.5397 10.5306 7.16945 10.9027C6.79919 11.2747 6.53302 11.7373 6.3975 12.2444C6.0566 14.152 5.88925 16.0866 5.8975 18.0244C5.88881 19.9622 6.05616 21.8968 6.3975 23.8044C6.53757 24.3059 6.80577 24.7623 7.17573 25.1288C7.54569 25.4952 8.00466 25.7591 8.5075 25.8944C10.3475 26.3944 17.7475 26.3944 17.8275 26.3944C17.9075 26.3944 25.3075 26.3944 27.1375 25.8944C27.6431 25.7647 28.105 25.5027 28.4758 25.1354C28.8466 24.7681 29.113 24.3087 29.2475 23.8044C29.5937 21.8975 29.7611 19.9624 29.7475 18.0244C29.7613 16.0897 29.5939 14.1579 29.2475 12.2544C29.1179 11.7514 28.8599 11.2907 28.4988 10.9173C28.1377 10.5439 27.6859 10.2707 27.1875 10.1244C25.3075 9.63438 17.8975 9.62438 17.8275 9.62438ZM15.3875 21.6244V14.4844L21.6175 18.0344L15.3875 21.5744V21.6244Z" fill="white"/>
</g>
<defs>
<clipPath id="clip0_30_8581">
<rect width="36" height="36" fill="white" transform="translate(0.1875 0.484375)"/>
</clipPath>
</defs>
</svg>
