<svg width="131" height="27" viewBox="0 0 131 27" fill="none" xmlns="http://www.w3.org/2000/svg">
<g clip-path="url(#clip0_30_8357)">
<path d="M45.8146 7.42932V4.42932H33.2246V7.42932H37.6046V19.4293H33.2246V22.4293H45.8146V19.4293H41.0246V7.42932H45.8146Z" fill="#02033B"/>
<path d="M66.7148 7.54934H61.7148V12.4893C61.7148 12.4893 64.4248 12.4093 66.6548 12.4093C68.8848 12.4093 69.4448 11.9293 69.4448 9.69934C69.4448 7.14934 66.7348 7.53934 66.7348 7.53934" fill="#02033B"/>
<path d="M52.2246 26.7494H78.2246V0.21936H52.2246V26.7494ZM73.0146 18.0594V22.2194H69.4246V18.3194C69.4246 18.3194 69.4246 15.3194 67.3546 15.3194C65.2846 15.3194 61.6946 15.3994 61.6946 15.3994V22.3294H58.1946V4.43936H68.5546C70.8846 4.30936 72.8846 6.08936 73.0146 8.42936C73.0146 8.42936 73.0146 8.42936 73.0146 8.43936C73.0346 8.64936 73.0346 8.85936 73.0146 9.06936C73.0146 13.9294 70.3146 14.1694 70.3146 14.1694C70.3146 14.1694 73.0146 14.3294 73.0146 18.0694" fill="#02033B"/>
<path d="M83.0449 4.43933V7.43933H85.5149V19.4393H83.0449V22.3893H98.2649V16.5493H95.2649V19.4193H88.7849V14.5593H93.5649V11.6093H88.7849V7.38933H94.9949V10.2193H98.2649V4.43933H83.0449Z" fill="#02033B"/>
<path d="M118.975 7.46936H113.555V19.4694H119.215C121.925 19.4694 122.005 15.9594 122.005 15.9594V11.2894C122.005 7.22936 119.005 7.46936 119.005 7.46936" fill="#02033B"/>
<path d="M104.125 26.7494H130.125V0.21936H104.125V26.7494ZM119.425 22.5194C112.895 22.5194 109.945 22.5994 109.945 22.5994V4.51936H117.665C117.665 4.51936 125.665 3.63936 125.665 10.8094V15.8094C125.665 15.8094 125.985 22.4994 119.455 22.4994" fill="#02033B"/>
<path d="M0.125 26.7494H26.175V0.21936H0.125V26.7494ZM20.835 22.3594H16.375L13.505 9.35936L10.395 22.4394H6.015L2.355 4.51936H5.945L8.405 18.1394L11.595 4.51936L15.495 4.59936L18.685 18.3794L21.125 4.51936H24.545L20.835 22.3594Z" fill="#02033B"/>
</g>
<defs>
<clipPath id="clip0_30_8357">
<rect width="130" height="26.53" fill="white" transform="translate(0.125 0.21936)"/>
</clipPath>
</defs>
</svg>
