<svg width="131" height="96" viewBox="0 0 131 96" fill="none" xmlns="http://www.w3.org/2000/svg">
<g clip-path="url(#clip0_30_8349)">
<path fill-rule="evenodd" clip-rule="evenodd" d="M113.796 53.3543C111.496 55.3143 108.556 56.3843 105.536 56.3543C99.2556 56.3543 95.1855 51.9043 95.1855 45.0143C95.1855 41.0743 96.0056 38.4643 97.9256 36.3243C99.6456 34.3443 102.186 33.2543 104.806 33.3743C107.136 33.3043 109.406 34.1543 111.126 35.7243C113.126 37.7743 114.036 40.7243 114.036 45.3043V46.6343H101.396V46.8043C101.396 50.1843 103.056 52.1143 106.016 52.1143C108.066 52.0743 110.046 51.3043 111.576 49.9343L113.796 53.3543ZM108.126 42.4443V42.2043C108.246 41.0643 108.006 39.9143 107.446 38.9143C106.906 38.0543 105.936 37.5643 104.926 37.6343C102.746 37.6343 101.506 39.3443 101.506 42.3843V42.4643L108.126 42.4443Z" fill="#02033B"/>
<path fill-rule="evenodd" clip-rule="evenodd" d="M128.544 37.8244H124.864V48.8244C124.864 51.6044 125.374 52.3344 127.344 52.3344C128.044 52.2944 128.734 52.1444 129.394 51.9144L130.124 55.3344C128.654 55.9844 127.064 56.3244 125.454 56.3344C122.554 56.3344 120.234 55.0544 119.554 53.1344C119.194 52.0444 119.064 50.8844 119.174 49.7444V37.8144H116.994V33.8844H119.174C119.134 32.1544 119.204 30.4244 119.384 28.7044L125.204 27.2544C124.984 29.4544 124.864 31.6744 124.864 33.8844H130.004L128.544 37.8244Z" fill="#02033B"/>
<path fill-rule="evenodd" clip-rule="evenodd" d="M86.495 26.0543L86.625 38.2043C86.625 40.2043 86.875 44.0643 87.095 46.3843C86.235 43.4943 85.145 40.6643 83.845 37.9443L78.125 26.0443H71.515V39.5543L56.435 7.20435L0.125 33.4643L26.375 89.7743L82.685 63.5143L77.235 51.8343L77.125 43.0843C77.125 40.6043 77.035 37.0843 76.825 34.6543C77.385 36.4943 79.185 40.6543 80.825 44.4143L85.925 55.7943H92.165V26.0543H86.495ZM54.205 55.4843H49.405V49.0843H52.745C57.255 49.0843 61.105 46.6143 61.105 40.9543C61.105 35.7543 57.675 32.8243 52.825 32.8243H48.595V47.3343L43.125 55.4843H11.725L27.125 32.8343H13.045L17.325 26.4343H40.555L25.255 49.0843H41.045V26.4343H54.205C62.225 26.1443 68.965 32.4043 69.255 40.4243C69.545 48.4443 63.285 55.1843 55.265 55.4743C55.125 55.4743 54.975 55.4743 54.835 55.4743H54.205" fill="#02033B"/>
</g>
<defs>
<clipPath id="clip0_30_8349">
<rect width="130" height="82.56" fill="white" transform="translate(0.125 7.20435)"/>
</clipPath>
</defs>
</svg>
